_________________________  Visit us at _________________________
  
http://p2pdl.com  ____________________________  http://p2pdl.com


Green Day Awesome As Fuck 2011 BRRip 720p x264 AAC - PRiSTiNE

Genre: Music
Plot: (Not Available)
Director: Bill Berg-Hillinger, Chris Dugan
Stars: Billie Joe Armstrong, Tre Cool, Mike Dirnt
Rated: Rated R for language and some disturbing images

Info: 
http://www.imdb.com/title/tt1833703/

General
Complete name                  : Green Day Awesome As Fuck 2011 BRRip 720p x264 AAC - PRiSTiNE.mp4
Format                         : MPEG-4
File size                      : 851 MiB
Duration                       : 1h 20mn
Overall bit rate mode          : Variable
Overall bit rate               : 1 482 Kbps

Video
Format                         : AVC
Format/Info                    : Advanced Video Codec
Format profile                 : High 10@L4.1
Bit rate                       : 1 343 Kbps
Width                          : 1 280 pixels
Height                         : 720 pixels
Display aspect ratio           : 16:9
Frame rate mode                : Constant
Frame rate                     : 29.970 fps
Bit depth                      : 10 bits
Stream size                    : 769 MiB (90%)
Writing library                : x264 core 130 r2273 b3065e6

Audio
Format                         : AAC
Duration                       : 1h 20mn
Bit rate mode                  : Variable
Bit rate                       : 139 Kbps
Channel(s)                     : 2 channels
Channel positions              : Front: L R
Sampling rate                  : 48.0 KHz / 24.0 KHz
Stream size                    : 79.9 MiB (9%)
Language                       : English

Subtitle                       : No
Source                         : 1080p.DTS.x264-CHD (Thanks)

Screenshots:
 
http://www.ultraimg.com/images/MrLCD.jpg 
http://www.ultraimg.com/images/Xk78E.jpg 
http://www.ultraimg.com/images/psfzH.jpg 
http://www.ultraimg.com/images/0fLMe.jpg

----------------------------------------------------------------------------------------------------


Encoded using revolutionary 10bit encoding, which enables us to provide you more crispier 
and sharper images at small sizes, just make sure you follow our instructions without a fault.
Recommend to you to use latest version of VLC player. Install K-Lite Codec Pack or shark007 codecs
in case of any kind of problem in playback (For non-VLC Media Player users). Alternatively, install
Core AVC codecs, the fastest decoder that there is coupled with Community Center Codec Pack and play
on Windows Media Player Classic. Check sample to be sure.
Enjoy!

Encoder Notes:Looking For Early Access To Anything You Can Provide DVDScr, R5, DVDR, BluRay, Direct
Audio, Music Releases and Seedboxes. We require dedicated servers, so as to do more 
and fast releases of movies.
If You Got anything to offer please contact us at "prg@hush.com".

Face book Fan Page:   
http://www.fb.me/p2pdl